<svg xmlns="http://www.w3.org/2000/svg" viewBox="0 0 24 24" width="24" height="24"><path d="M12 3.5a8.94 8.94 0 0 1 2.43 17.55.7.7 0 0 1-.21-.48v-2.48a2.33 2.33 0 0 0-.62-1.66c1.97-.23 4.04-.98 4.04-4.43.01-.9-.32-1.75-.92-2.4.27-.78.24-1.63-.09-2.39 0 0-.74-.23-2.43.93a8.3 8.3 0 0 0-4.44 0c-1.68-1.16-2.43-.93-2.44-.93a3.27 3.27 0 0 0-.08 2.4 3.5 3.5 0 0 0-.94 2.41c0 3.44 2.1 4.21 4.04 4.44a1.9 1.9 0 0 0-.55 1.2c-.51.23-1.8.62-2.59-.75a1.84 1.84 0 0 0-1.35-.95s-.87 0-.06.56c0 0 .58.28.98 1.31 0 0 .52 1.6 2.98 1.06v1.67a.7.7 0 0 1-.2.49A8.95 8.95 0 0 1 12 3.5Z"/></svg>
