<svg xmlns="http://www.w3.org/2000/svg" viewBox="0 0 256 60" width="128" height="30">
  <title>Mozilla</title>
  <path d="m13.32 22.1 5.1 24.3h2.1l5.1-24.3H39.3v37.34h-7.26V28.46h-2.1l-6.96 30.98h-7.02L9.02 28.46h-2.1v31H-.35V22.1h13.66Zm45.12 8.74c8.73 0 13.8 5.15 13.8 14.57S67.14 60 58.44 60c-8.73 0-13.8-5.17-13.8-14.59 0-9.43 5.07-14.57 13.8-14.57Zm0 23.34c4.1 0 6.16-2.1 6.16-6.73v-4.12c0-4.62-2.06-6.73-6.16-6.73s-6.15 2.1-6.15 6.73v4.12c0 4.63 2.05 6.73 6.15 6.73Zm17.68-.14 14.82-17.26H76.32v-5.41h23.31v5.4L84.84 54.05h15.03v5.4H76.13v-5.41Zm28.07-22.67h10.7v28.07h-7.25V36.77h-3.48v-5.4h.03Zm3.44-9.27h7.26v5.4h-7.25v-5.4Zm12.62 0h10.72v37.34h-7.24V27.5h-3.48v-5.4Zm16.08 0h10.7v37.34h-7.25V27.5h-3.48v-5.4h.03Zm27.8 8.74c4.24 0 7.08 2.05 7.87 5.63h2.1v-5.1h8.88v5.4h-3.47v17.28h3.47v5.4h-4.25c-3 0-4.63-1.63-4.63-4.62v-.48H172c-.78 3.58-3.63 5.63-7.88 5.63-6.68 0-11.4-5.59-11.4-14.58 0-9 4.72-14.55 11.4-14.55m2.2 23.34c4.1 0 5.93-2.1 5.93-6.73v-4.12c0-4.62-1.82-6.73-5.94-6.73-3.99 0-5.92 2.1-5.92 6.73v4.13c0 4.62 1.92 6.72 5.93 6.72Zm46.28 5.27h-7.26V0h7.26v59.46Zm6.3-28.41h30.8v-2.1l-20.4-7.32v-5.88l20.4-7.33v-2.1h-24.27V0h30.79v12l-16.62 5.63v2.11l16.61 5.64v12H218.9v-6.33Zm0-24.73h6.5v6.52h-6.5V6.32Z"/>
</svg>
