<svg width="16" height="16" viewBox="0 0 16 16" fill="none" xmlns="http://www.w3.org/2000/svg">
<g clip-path="url(#clip0_1540_4769)">
<path d="M14.8154 12.7108L14.032 11.2764C13.946 11.117 13.9005 10.9389 13.8996 10.7577V6.6198C13.8665 5.38726 13.4264 4.20034 12.6479 3.2442C11.8695 2.28806 10.7964 1.6165 9.59613 1.33428C9.52016 0.960117 9.31716 0.623724 9.02154 0.382101C8.72592 0.140478 8.35586 0.00848389 7.97406 0.00848389C7.59226 0.00848389 7.2222 0.140478 6.92658 0.382101C6.63097 0.623724 6.42797 0.960117 6.35199 1.33428C5.15175 1.6165 4.07867 2.28806 3.30019 3.2442C2.52171 4.20034 2.0816 5.38726 2.04855 6.6198V10.7577C2.04764 10.9389 2.00216 11.117 1.91613 11.2764L1.13268 12.7108C1.04062 12.8791 0.993999 13.0685 0.99743 13.2602C1.00086 13.452 1.05422 13.6396 1.15225 13.8044C1.25028 13.9693 1.38958 14.1058 1.55643 14.2004C1.72328 14.295 1.91191 14.3445 2.10372 14.3439H5.84441C5.97146 14.8115 6.24882 15.2242 6.6337 15.5184C7.01858 15.8127 7.48959 15.9721 7.97406 15.9721C8.45853 15.9721 8.92954 15.8127 9.31442 15.5184C9.6993 15.2242 9.97667 14.8115 10.1037 14.3439H13.8444C14.0362 14.3445 14.2248 14.295 14.3917 14.2004C14.5585 14.1058 14.6979 13.9693 14.7959 13.8044C14.8939 13.6396 14.9473 13.452 14.9507 13.2602C14.9541 13.0685 14.9075 12.8791 14.8154 12.7108ZM3.03061 12.7108L3.37268 12.0929C3.58543 11.6876 3.69889 11.2375 3.70372 10.7798V6.6198C3.76366 5.54349 4.24571 4.53425 5.04521 3.81118C5.84472 3.08811 6.89716 2.70957 7.97406 2.75773C9.05097 2.70957 10.1034 3.08811 10.9029 3.81118C11.7024 4.53425 12.1845 5.54349 12.2444 6.6198V10.7577C12.2492 11.2155 12.3627 11.6655 12.5754 12.0708L12.9175 12.6888L3.03061 12.7108Z" fill="#4E4E4E"/>
</g>
<defs>
<clipPath id="clip0_1540_4769">
<rect width="13.9476" height="16" fill="white" transform="translate(1)"/>
</clipPath>
</defs>
</svg>
