<svg width="16" height="16" viewBox="0 0 16 16" fill="none" xmlns="http://www.w3.org/2000/svg">
<path d="M14.8497 12.7313L14.0645 11.2936C13.9782 11.1338 13.9326 10.9553 13.9317 10.7738V6.62639C13.8986 5.39105 13.4575 4.20141 12.6772 3.24309C11.897 2.28478 10.8215 1.61168 9.61848 1.32882C9.54233 0.953803 9.33887 0.616643 9.04258 0.374469C8.74629 0.132295 8.37538 0 7.99271 0C7.61004 0 7.23914 0.132295 6.94285 0.374469C6.64655 0.616643 6.4431 0.953803 6.36695 1.32882C5.16397 1.61168 4.08844 2.28478 3.30819 3.24309C2.52793 4.20141 2.08682 5.39105 2.05369 6.62639V10.7738C2.05278 10.9553 2.0072 11.1338 1.92097 11.2936L1.13574 12.7313C1.04346 12.9 0.996738 13.0898 1.00018 13.282C1.00362 13.4742 1.0571 13.6622 1.15535 13.8274C1.2536 13.9927 1.39322 14.1294 1.56045 14.2243C1.72769 14.3191 1.91674 14.3687 2.10899 14.3681H5.8582C5.98554 14.8367 6.26354 15.2504 6.6493 15.5453C7.03505 15.8402 7.50714 16 7.99271 16C8.47829 16 8.95037 15.8402 9.33613 15.5453C9.72188 15.2504 9.99988 14.8367 10.1272 14.3681H13.8764C14.0687 14.3687 14.2577 14.3191 14.425 14.2243C14.5922 14.1294 14.7318 13.9927 14.8301 13.8274C14.9283 13.6622 14.9818 13.4742 14.9852 13.282C14.9887 13.0898 14.942 12.9 14.8497 12.7313ZM3.038 12.7313L3.38084 12.112C3.59408 11.7057 3.70779 11.2547 3.71263 10.7959V6.62639C3.77271 5.54763 4.25586 4.53609 5.05719 3.81137C5.85852 3.08665 6.91335 2.70725 7.99271 2.75552C9.07207 2.70725 10.1269 3.08665 10.9282 3.81137C11.7296 4.53609 12.2127 5.54763 12.2728 6.62639V10.7738C12.2776 11.2325 12.3913 11.6836 12.6046 12.0899L12.9474 12.7092L3.038 12.7313Z" fill="#4E4E4E"/>
<circle cx="11" cy="4" r="2.75" fill="#0085F2" stroke="white" stroke-width="1.5"/>
</svg>
