<svg width="16" height="16" viewBox="0 0 16 16" fill="none" xmlns="http://www.w3.org/2000/svg">
<g clip-path="url(#clip0_2341_314)">
<path d="M13.3333 13.3333H6V4H13.3333M13.3333 2.66667H6C5.64638 2.66667 5.30724 2.80714 5.05719 3.05719C4.80714 3.30724 4.66667 3.64638 4.66667 4V13.3333C4.66667 13.687 4.80714 14.0261 5.05719 14.2761C5.30724 14.5262 5.64638 14.6667 6 14.6667H13.3333C13.687 14.6667 14.0261 14.5262 14.2761 14.2761C14.5262 14.0261 14.6667 13.687 14.6667 13.3333V4C14.6667 3.64638 14.5262 3.30724 14.2761 3.05719C14.0261 2.80714 13.687 2.66667 13.3333 2.66667ZM11.3333 0H3.33333C2.97971 0 2.64057 0.140476 2.39052 0.390524C2.14048 0.640573 2 0.979711 2 1.33333V10.6667H3.33333V1.33333H11.3333V0.666667V0Z" fill="#4E4E4E"/>
</g>
<defs>
<clipPath id="clip0_2341_314">
<rect width="16" height="16" fill="white"/>
</clipPath>
</defs>
</svg>
