<svg width="16" height="16" viewBox="0 0 16 16" fill="none" xmlns="http://www.w3.org/2000/svg">
<path d="M15.74 3.59283C16.0867 3.24622 16.0867 2.66852 15.74 2.33968L13.6603 0.259964C13.3315 -0.0866546 12.7538 -0.0866546 12.4072 0.259964L11.1273 1.53285C10.9311 1.72796 10.9307 2.04528 11.1264 2.24092L14.1047 5.21928M0.146287 12.5207C0.0526161 12.6145 0 12.7416 0 12.8741V15.5C0 15.7761 0.223858 16 0.5 16H3.12563C3.25832 16 3.38556 15.9473 3.47934 15.8534L12.8094 6.51492C13.0045 6.31963 13.0044 6.00317 12.8092 5.80797L10.1835 3.18221C9.98814 2.98688 9.67143 2.98696 9.47619 3.18237L0.146287 12.5207Z" fill="#4E4E4E"/>
</svg>
