<svg width="16" height="16" viewBox="0 0 16 16" fill="none" xmlns="http://www.w3.org/2000/svg">
<path d="M3.33333 12.6667C3.33333 12.8435 3.40357 13.0131 3.5286 13.1381C3.65362 13.2631 3.82319 13.3334 4 13.3334H12C12.1768 13.3334 12.3464 13.2631 12.4714 13.1381C12.5964 13.0131 12.6667 12.8435 12.6667 12.6667C12.6667 12.5267 12.62 12.3934 12.5467 12.2867L8.66667 5.56671V2.66671H7.33333V5.56671L3.45333 12.2867C3.38 12.3934 3.33333 12.5267 3.33333 12.6667ZM4 14.6667C3.46957 14.6667 2.96086 14.456 2.58579 14.0809C2.21071 13.7058 2 13.1971 2 12.6667C2 12.2667 2.12 11.8934 2.33333 11.58L6 5.20671V4.00004C5.82319 4.00004 5.65362 3.9298 5.5286 3.80478C5.40357 3.67975 5.33333 3.51019 5.33333 3.33337V2.66671C5.33333 2.31309 5.47381 1.97395 5.72386 1.7239C5.97391 1.47385 6.31305 1.33337 6.66667 1.33337H9.33333C9.68696 1.33337 10.0261 1.47385 10.2761 1.7239C10.5262 1.97395 10.6667 2.31309 10.6667 2.66671V3.33337C10.6667 3.51019 10.5964 3.67975 10.4714 3.80478C10.3464 3.9298 10.1768 4.00004 10 4.00004V5.20671L13.6667 11.58C13.88 11.8934 14 12.2667 14 12.6667C14 13.1971 13.7893 13.7058 13.4142 14.0809C13.0391 14.456 12.5304 14.6667 12 14.6667H4Z" fill="#4E4E4E"/>
<path d="M11.4222 10H4.57776L3.33331 13.3333H12.6666L11.4222 10Z" fill="#4E4E4E" stroke="#4E4E4E"/>
</svg>
