<svg width="16" height="16" viewBox="0 0 16 16" fill="none" xmlns="http://www.w3.org/2000/svg">
<g clip-path="url(#clip0_1540_4847)">
<path d="M14.9596 6.57575C14.1666 5.47046 13.1217 4.56994 11.9114 3.94874C10.7012 3.32755 9.36036 3.00354 8 3.00354C6.63964 3.00354 5.29884 3.32755 4.08858 3.94874C2.87833 4.56994 1.83344 5.47046 1.0404 6.57575C0.611523 7.16382 0.261731 7.80568 0 8.48484C0.252249 9.16242 0.591814 9.8042 1.0101 10.3939C1.80314 11.4992 2.84803 12.3997 4.05828 13.0209C5.26853 13.6421 6.60933 13.9661 7.9697 13.9661C9.33006 13.9661 10.6709 13.6421 11.8811 13.0209C13.0914 12.3997 14.1363 11.4992 14.9293 10.3939C15.3476 9.8042 15.6871 9.16242 15.9394 8.48484C15.6966 7.80882 15.3673 7.16711 14.9596 6.57575ZM8 12.4545C6.67717 12.4525 5.38145 12.0794 4.26009 11.3776C3.13873 10.6759 2.23672 9.67367 1.65657 8.48484C2.23986 7.3002 3.14323 6.30257 4.26435 5.60494C5.38547 4.90731 6.67954 4.53755 8 4.53755C9.32045 4.53755 10.6145 4.90731 11.7356 5.60494C12.8568 6.30257 13.7601 7.3002 14.3434 8.48484C13.7633 9.67367 12.8613 10.6759 11.7399 11.3776C10.6186 12.0794 9.32283 12.4525 8 12.4545Z" fill="#4E4E4E"/>
<path d="M8.00003 5.45459C7.40069 5.45459 6.81482 5.63231 6.31648 5.96529C5.81815 6.29826 5.42975 6.77153 5.2004 7.32525C4.97104 7.87896 4.91103 8.48825 5.02795 9.07608C5.14488 9.6639 5.43349 10.2038 5.85728 10.6276C6.28108 11.0514 6.82103 11.34 7.40885 11.457C7.99667 11.5739 8.60596 11.5139 9.15968 11.2845C9.71339 11.0552 10.1867 10.6668 10.5196 10.1684C10.8526 9.67011 11.0303 9.08423 11.0303 8.48489C11.0303 7.68121 10.7111 6.91044 10.1428 6.34215C9.57449 5.77385 8.80372 5.45459 8.00003 5.45459ZM8.00003 10C7.70036 10 7.40742 9.91118 7.15826 9.7447C6.90909 9.57821 6.71489 9.34157 6.60021 9.06472C6.48553 8.78786 6.45553 8.48321 6.51399 8.1893C6.57245 7.89539 6.71676 7.62542 6.92866 7.41352C7.14055 7.20162 7.41053 7.05732 7.70444 6.99885C7.99835 6.94039 8.303 6.9704 8.57985 7.08508C8.85671 7.19975 9.09335 7.39395 9.25983 7.64312C9.42632 7.89229 9.51518 8.18522 9.51518 8.48489C9.51518 8.88674 9.35555 9.27212 9.0714 9.55627C8.78726 9.84041 8.40187 10 8.00003 10Z" fill="#4E4E4E"/>
</g>
<defs>
<clipPath id="clip0_1540_4847">
<rect width="16" height="10.9697" fill="white" transform="translate(0 3)"/>
</clipPath>
</defs>
</svg>
