<?xml version="1.0" encoding="UTF-8" standalone="no"?>
<svg
   width="20"
   height="22"
   viewBox="0 0 20 22"
   fill="none"
   version="1.1"
   id="svg1"
   sodipodi:docname="feedback.svg"
   inkscape:version="1.3.2 (091e20e, 2023-11-25)"
   xmlns:inkscape="http://www.inkscape.org/namespaces/inkscape"
   xmlns:sodipodi="http://sodipodi.sourceforge.net/DTD/sodipodi-0.dtd"
   xmlns="http://www.w3.org/2000/svg"
   xmlns:svg="http://www.w3.org/2000/svg">
  <defs
     id="defs1" />
  <sodipodi:namedview
     id="namedview1"
     pagecolor="#ffffff"
     bordercolor="#000000"
     borderopacity="0.25"
     inkscape:showpageshadow="2"
     inkscape:pageopacity="0.0"
     inkscape:pagecheckerboard="0"
     inkscape:deskcolor="#d1d1d1"
     inkscape:zoom="51.590909"
     inkscape:cx="10.001762"
     inkscape:cy="11"
     inkscape:window-width="2048"
     inkscape:window-height="1306"
     inkscape:window-x="129"
     inkscape:window-y="51"
     inkscape:window-maximized="0"
     inkscape:current-layer="svg1" />
  <path
     d="M 11,9.0000001 H 9.6250001 c -0.3451751,0 -0.625,-0.279825 -0.625,-0.6250001 V 3.625 C 9.0000001,3.279825 9.2796876,3 9.6248625,3 10.0396,3 10.582387,3 11,3 m 0,10 H 9.6250001 c -0.3451751,0 -0.625,-0.279875 -0.625,-0.625 v -0.75 c 0,-0.345125 0.2798249,-0.625 0.625,-0.625 H 11 M 18,0 H 2 C 0.90000001,0 0,0.90000001 0,2 V 18.491125 C 0,19.047875 0.67321376,19.32675 1.0669413,18.933 L 3.8169375,16.183001 C 3.93415,16.065875 4.093125,16 4.2588875,16 H 18 c 1.1,0 2,-0.9 2,-2 V 2 C 20,0.90000001 19.1,0 18,0 Z"
     fill="#696969"
     id="path1"
     style="stroke-width:1.25" />
</svg>
