<svg width="16" height="17" viewBox="0 0 16 17" fill="none" xmlns="http://www.w3.org/2000/svg">
<path d="M8.8 8.2H7.7C7.42386 8.2 7.2 7.97614 7.2 7.7V3.9C7.2 3.62386 7.42375 3.4 7.69989 3.4C8.03168 3.4 8.46591 3.4 8.8 3.4M8.8 11.4H7.7C7.42386 11.4 7.2 11.1761 7.2 10.9V10.3C7.2 10.0239 7.42386 9.8 7.7 9.8H8.8M14.4 1H1.6C0.72 1 0 1.72 0 2.6V15.7929C0 16.2383 0.538571 16.4614 0.853553 16.1464L3.05355 13.9464C3.14732 13.8527 3.2745 13.8 3.40711 13.8H14.4C15.28 13.8 16 13.08 16 12.2V2.6C16 1.72 15.28 1 14.4 1Z" fill="#4E4E4E"/>
</svg>
