<svg width="16" height="16" viewBox="0 0 16 16" fill="none" xmlns="http://www.w3.org/2000/svg">
<path d="M14.3889 3.13264C12.9429 1.23292 10.6886 0.0489519 8.31758 0.00174869C6.46022 -0.0352271 5.17689 0.521594 4.45078 0.969244C5.42226 0.40718 6.82793 0.0883903 8.0587 0.104074C11.2249 0.144414 14.6252 2.2952 15.1302 6.17238C15.7099 10.623 12.6028 14.3376 8.23155 14.3488C3.42255 14.3611 0.497677 10.1131 1.26212 6.29758C1.30029 6.10704 1.28124 5.92173 1.34488 5.74165C1.38131 5.07076 1.63534 4.01916 2.18336 2.94467C1.62965 3.23047 0.92448 4.13472 0.57631 4.97233C0.0743794 6.17985 -0.10251 7.62388 0.0567247 8.99774C0.0687121 9.10115 0.0795697 9.20427 0.0931263 9.3068C0.737217 13.0854 4.02703 15.9621 7.98917 15.9621C12.4134 15.9621 16 12.3755 16 7.95128C16 6.14232 15.4001 4.47362 14.3889 3.13264ZM1.70966 3.82832L1.70963 3.82835L1.70966 3.82832Z" fill="url(#paint0_radial_1540_4680)"/>
<g opacity="0.67">
<path opacity="0.67" d="M14.3889 3.13264C12.9429 1.23292 10.6886 0.0489519 8.31758 0.00174869C6.46022 -0.0352271 5.17689 0.521594 4.45078 0.969244C5.42226 0.40718 6.82793 0.0883903 8.0587 0.104074C11.2249 0.144414 14.6252 2.2952 15.1302 6.17238C15.7099 10.623 12.6028 14.3376 8.23155 14.3488C3.42255 14.3611 0.497677 10.1131 1.26212 6.29758C1.30029 6.10704 1.28124 5.92173 1.34488 5.74165C1.38131 5.07076 1.63534 4.01916 2.18336 2.94467C1.62965 3.23047 0.92448 4.13472 0.57631 4.97233C0.0743794 6.17985 -0.10251 7.62388 0.0567247 8.99774C0.0687121 9.10115 0.0795697 9.20427 0.0931263 9.3068C0.737217 13.0854 4.02703 15.9621 7.98917 15.9621C12.4134 15.9621 16 12.3755 16 7.95128C16 6.14232 15.4001 4.47362 14.3889 3.13264ZM1.70966 3.82832L1.70963 3.82835L1.70966 3.82832Z" fill="url(#paint1_radial_1540_4680)"/>
</g>
<path d="M14.3889 3.13264C12.9429 1.23292 10.6886 0.0489519 8.31758 0.00174869C6.46022 -0.0352271 5.17689 0.521594 4.45078 0.969244C5.42226 0.40718 6.82793 0.0883903 8.0587 0.104074C11.2249 0.144414 14.6252 2.2952 15.1302 6.17238C15.7099 10.623 12.6028 14.3376 8.23155 14.3488C3.42255 14.3611 0.497677 10.1131 1.26212 6.29758C1.30029 6.10704 1.28124 5.92173 1.34488 5.74165C1.38131 5.07076 1.63534 4.01916 2.18336 2.94467C1.62965 3.23047 0.92448 4.13472 0.57631 4.97233C0.0743794 6.17985 -0.10251 7.62388 0.0567247 8.99774C0.0687121 9.10115 0.0795697 9.20427 0.0931263 9.3068C0.737217 13.0854 4.02703 15.9621 7.98917 15.9621C12.4134 15.9621 16 12.3755 16 7.95128C16 6.14232 15.4001 4.47362 14.3889 3.13264ZM1.70966 3.82832L1.70963 3.82835L1.70966 3.82832Z" fill="url(#paint2_radial_1540_4680)"/>
<path d="M14.3889 3.13264C12.9429 1.23292 10.6886 0.0489519 8.31758 0.00174869C6.46022 -0.0352271 5.17689 0.521594 4.45078 0.969244C5.42226 0.40718 6.82793 0.0883903 8.0587 0.104074C11.2249 0.144414 14.6252 2.2952 15.1302 6.17238C15.7099 10.623 12.6028 14.3376 8.23155 14.3488C3.42255 14.3611 0.497677 10.1131 1.26212 6.29758C1.30029 6.10704 1.28124 5.92173 1.34488 5.74165C1.38131 5.07076 1.63534 4.01916 2.18336 2.94467C1.62965 3.23047 0.92448 4.13472 0.57631 4.97233C0.0743794 6.17985 -0.10251 7.62388 0.0567247 8.99774C0.0687121 9.10115 0.0795697 9.20427 0.0931263 9.3068C0.737217 13.0854 4.02703 15.9621 7.98917 15.9621C12.4134 15.9621 16 12.3755 16 7.95128C16 6.14232 15.4001 4.47362 14.3889 3.13264ZM1.70966 3.82832L1.70963 3.82835L1.70966 3.82832Z" fill="url(#paint3_radial_1540_4680)"/>
<path d="M14.3889 3.13264C12.9429 1.23292 10.6886 0.0489519 8.31758 0.00174869C6.46022 -0.0352271 5.17689 0.521594 4.45078 0.969244C5.42226 0.40718 6.82793 0.0883903 8.0587 0.104074C11.2249 0.144414 14.6252 2.2952 15.1302 6.17238C15.7099 10.623 12.6028 14.3376 8.23155 14.3488C3.42255 14.3611 0.497677 10.1131 1.26212 6.29758C1.30029 6.10704 1.28124 5.92173 1.34488 5.74165C1.38131 5.07076 1.63534 4.01916 2.18336 2.94467C1.62965 3.23047 0.92448 4.13472 0.57631 4.97233C0.0743794 6.17985 -0.10251 7.62388 0.0567247 8.99774C0.0687121 9.10115 0.0795697 9.20427 0.0931263 9.3068C0.737217 13.0854 4.02703 15.9621 7.98917 15.9621C12.4134 15.9621 16 12.3755 16 7.95128C16 6.14232 15.4001 4.47362 14.3889 3.13264ZM1.70966 3.82832L1.70963 3.82835L1.70966 3.82832Z" fill="url(#paint4_radial_1540_4680)"/>
<path d="M15.1302 6.17238C15.1942 6.66385 15.2131 7.14715 15.1905 7.6182C15.4558 7.57894 15.7215 7.54336 15.9878 7.51254C15.8992 5.87295 15.3179 4.36447 14.3889 3.13264C12.9429 1.23292 10.6886 0.0489519 8.3176 0.00174869C6.46025 -0.0352271 5.17691 0.521594 4.45081 0.969244C5.42229 0.40718 6.82795 0.0883903 8.05872 0.104074C11.2249 0.144414 14.6252 2.2952 15.1302 6.17238Z" fill="url(#paint5_linear_1540_4680)"/>
<path d="M15.3249 5.95106C14.8747 1.89915 11.2526 0.0778408 8.05869 0.104101C6.82786 0.114221 5.42226 0.407207 4.45078 0.969271C3.99698 1.24904 3.76089 1.48599 3.73886 1.50862C3.76461 1.4873 3.84157 1.42409 3.96923 1.33668C3.97341 1.33376 3.97763 1.3309 3.98181 1.328C3.98544 1.32553 3.98924 1.32301 3.99294 1.32051C4.45603 1.00121 4.9787 0.76931 5.53139 0.607734C6.37547 0.36097 7.28937 0.278153 8.16804 0.300181C11.7802 0.507986 14.3292 3.49895 14.418 6.68265C14.4914 9.31761 12.3296 11.419 9.83755 11.5407C8.02518 11.6292 6.31799 10.7543 5.48362 9.00397C5.298 8.61459 5.16188 8.21882 5.09088 7.74039C4.6956 5.07669 6.48862 2.80513 8.13286 2.24276C7.24571 1.46975 5.0232 1.52218 3.36901 2.73624C2.17772 3.61056 1.40493 4.94081 1.14891 6.52785C0.953703 7.73786 1.13755 8.99618 1.61692 10.12C2.10538 11.2651 2.89977 12.2747 3.89848 13.018C4.98297 13.8252 6.28889 14.295 7.63489 14.3973C7.83339 14.4124 8.03247 14.4197 8.23154 14.4197C13.5241 14.4197 15.8206 10.4119 15.3249 5.95106Z" fill="url(#paint6_radial_1540_4680)"/>
<path d="M15.3249 5.95106C14.8747 1.89915 11.2526 0.0778408 8.05869 0.104101C6.82786 0.114221 5.42226 0.407207 4.45078 0.969271C3.99698 1.24904 3.76089 1.48599 3.73886 1.50862C3.76461 1.4873 3.84157 1.42409 3.96923 1.33668C3.97341 1.33376 3.97763 1.3309 3.98181 1.328C3.98544 1.32553 3.98924 1.32301 3.99294 1.32051C4.45603 1.00121 4.9787 0.76931 5.53139 0.607734C6.37547 0.36097 7.28937 0.278153 8.16804 0.300181C11.7802 0.507986 14.3292 3.49895 14.418 6.68265C14.4914 9.31761 12.3296 11.419 9.83755 11.5407C8.02518 11.6292 6.31799 10.7543 5.48362 9.00397C5.298 8.61459 5.16188 8.21882 5.09088 7.74039C4.6956 5.07669 6.48862 2.80513 8.13286 2.24276C7.24571 1.46975 5.0232 1.52218 3.36901 2.73624C2.17772 3.61056 1.40493 4.94081 1.14891 6.52785C0.953703 7.73786 1.13755 8.99618 1.61692 10.12C2.10538 11.2651 2.89977 12.2747 3.89848 13.018C4.98297 13.8252 6.28889 14.295 7.63489 14.3973C7.83339 14.4124 8.03247 14.4197 8.23154 14.4197C13.5241 14.4197 15.8206 10.4119 15.3249 5.95106Z" fill="url(#paint7_radial_1540_4680)"/>
<path opacity="0.53" d="M15.3249 5.95106C14.8747 1.89915 11.2526 0.0778408 8.05869 0.104101C6.82786 0.114221 5.42226 0.407207 4.45078 0.969271C3.99698 1.24904 3.76089 1.48599 3.73886 1.50862C3.76461 1.4873 3.84157 1.42409 3.96923 1.33668C3.97341 1.33376 3.97763 1.3309 3.98181 1.328C3.98544 1.32553 3.98924 1.32301 3.99294 1.32051C4.45603 1.00121 4.9787 0.76931 5.53139 0.607734C6.37547 0.36097 7.28937 0.278153 8.16804 0.300181C11.7802 0.507986 14.3292 3.49895 14.418 6.68265C14.4914 9.31761 12.3296 11.419 9.83755 11.5407C8.02518 11.6292 6.31799 10.7543 5.48362 9.00397C5.298 8.61459 5.16188 8.21882 5.09088 7.74039C4.6956 5.07669 6.48862 2.80513 8.13286 2.24276C7.24571 1.46975 5.0232 1.52218 3.36901 2.73624C2.17772 3.61056 1.40493 4.94081 1.14891 6.52785C0.953703 7.73786 1.13755 8.99618 1.61692 10.12C2.10538 11.2651 2.89977 12.2747 3.89848 13.018C4.98297 13.8252 6.28889 14.295 7.63489 14.3973C7.83339 14.4124 8.03247 14.4197 8.23154 14.4197C13.5241 14.4197 15.8206 10.4119 15.3249 5.95106Z" fill="url(#paint8_radial_1540_4680)"/>
<path opacity="0.53" d="M15.3249 5.95106C14.8747 1.89915 11.2526 0.0778408 8.05869 0.104101C6.82786 0.114221 5.42226 0.407207 4.45078 0.969271C3.99698 1.24904 3.76089 1.48599 3.73886 1.50862C3.76461 1.4873 3.84157 1.42409 3.96923 1.33668C3.97341 1.33376 3.97763 1.3309 3.98181 1.328C3.98544 1.32553 3.98924 1.32301 3.99294 1.32051C4.45603 1.00121 4.9787 0.76931 5.53139 0.607734C6.37547 0.36097 7.28937 0.278153 8.16804 0.300181C11.7802 0.507986 14.3292 3.49895 14.418 6.68265C14.4914 9.31761 12.3296 11.419 9.83755 11.5407C8.02518 11.6292 6.31799 10.7543 5.48362 9.00397C5.298 8.61459 5.16188 8.21882 5.09088 7.74039C4.6956 5.07669 6.48862 2.80513 8.13286 2.24276C7.24571 1.46975 5.0232 1.52218 3.36901 2.73624C2.17772 3.61056 1.40493 4.94081 1.14891 6.52785C0.953703 7.73786 1.13755 8.99618 1.61692 10.12C2.10538 11.2651 2.89977 12.2747 3.89848 13.018C4.98297 13.8252 6.28889 14.295 7.63489 14.3973C7.83339 14.4124 8.03247 14.4197 8.23154 14.4197C13.5241 14.4197 15.8206 10.4119 15.3249 5.95106Z" fill="url(#paint9_radial_1540_4680)"/>
<path d="M9.83754 11.5406C13.258 11.3331 14.7216 8.50862 14.8133 6.50356C14.9566 3.37254 13.0943 -0.00404954 8.16804 0.300148C7.28936 0.278119 6.37547 0.360937 5.53138 0.607701C4.79144 0.833436 4.27752 1.12857 3.99294 1.32047C3.98926 1.32301 3.98548 1.32541 3.98181 1.32796C3.97739 1.33097 3.97353 1.3337 3.96922 1.33665C3.89262 1.39019 3.81772 1.44622 3.74457 1.50467C3.88153 1.41119 5.5804 0.410294 7.9407 0.719321C10.7683 1.08953 13.3545 3.28468 13.3545 6.181C13.3545 8.40945 11.6281 10.1107 9.60689 9.98928C6.60382 9.80883 5.84762 6.73676 7.40907 5.40939C6.98783 5.31888 6.19618 5.49611 5.64502 6.31822C5.15047 7.05588 5.17839 8.19572 5.48361 9.00394C6.31798 10.7542 8.02635 11.6505 9.83754 11.5406Z" fill="url(#paint10_radial_1540_4680)"/>
<path d="M14.3888 3.13266C14.1744 2.8509 13.9403 2.58701 13.6925 2.33813C13.4937 2.12773 13.2808 1.93387 13.0571 1.75433C13.1859 1.86702 13.31 1.98531 13.4268 2.11136C13.86 2.579 14.2031 3.13145 14.4032 3.73626C14.821 4.99917 14.7937 6.57958 13.996 7.82088C13.0454 9.30007 11.4979 10.0303 9.82504 9.99469C9.7527 9.99501 9.68007 9.9937 9.60688 9.9893C6.60386 9.80884 5.84763 6.73677 7.40912 5.40942C6.98782 5.3189 6.19624 5.49615 5.64506 6.31823C5.1505 7.0559 5.17841 8.19573 5.48365 9.00393C5.29802 8.61459 5.16191 8.2188 5.09091 7.74039C4.69561 5.07669 6.48865 2.8051 8.1329 2.24273C7.24573 1.46974 5.02324 1.52217 3.36901 2.73623C2.4051 3.44367 1.71548 4.4498 1.35157 5.64877C1.40506 4.97604 1.65979 3.97125 2.18333 2.94468C1.62967 3.23047 0.924459 4.13475 0.576352 4.97232C0.0744196 6.17985 -0.102504 7.6239 0.056706 8.99777C0.0687513 9.10114 0.079592 9.20427 0.0931251 9.30683C0.737191 13.0854 4.02703 15.9621 7.98921 15.9621C12.4134 15.9621 16 12.3755 16 7.95128C16 6.14234 15.4001 4.47365 14.3888 3.13266Z" fill="url(#paint11_linear_1540_4680)"/>
<path d="M14.4031 3.73626C14.203 3.13143 13.86 2.57897 13.4268 2.11137C12.9164 1.56047 12.2808 1.14184 11.6079 0.815833C11.0355 0.538475 10.4376 0.319583 9.81983 0.183561C8.71323 -0.0600731 7.55222 -0.0557525 6.50679 0.164278C5.37023 0.403488 4.37074 0.894177 3.73865 1.50763C4.2126 1.22031 4.87374 0.987283 5.34483 0.868536C7.53095 0.317483 9.93818 0.914345 11.5794 2.48459C11.9094 2.80029 12.2053 3.15354 12.4452 3.54263C13.4243 5.13062 13.3316 7.127 12.5683 8.30442C12.0012 9.17911 10.7868 9.99967 9.65378 9.99076C11.392 10.0818 13.013 9.35052 13.996 7.82089C14.7937 6.57957 14.821 4.99916 14.4031 3.73626Z" fill="url(#paint12_linear_1540_4680)"/>
<path d="M14.4031 3.73626C14.203 3.13143 13.86 2.57897 13.4268 2.11137C12.9164 1.56047 12.2808 1.14184 11.6079 0.815833C11.0355 0.538475 10.4376 0.319583 9.81983 0.183561C8.71323 -0.0600731 7.55222 -0.0557525 6.50679 0.164278C5.37023 0.403488 4.37074 0.894177 3.73865 1.50763C4.2126 1.22031 4.87374 0.987283 5.34483 0.868536C7.53095 0.317483 9.93818 0.914345 11.5794 2.48459C11.9094 2.80029 12.2053 3.15354 12.4452 3.54263C13.4243 5.13062 13.3316 7.127 12.5683 8.30442C12.0012 9.17911 10.7868 9.99967 9.65378 9.99076C11.392 10.0818 13.013 9.35052 13.996 7.82089C14.7937 6.57957 14.821 4.99916 14.4031 3.73626Z" fill="url(#paint13_linear_1540_4680)"/>
<defs>
<radialGradient id="paint0_radial_1540_4680" cx="0" cy="0" r="1" gradientUnits="userSpaceOnUse" gradientTransform="translate(14.3062 3.02367) scale(18.156)">
<stop stop-color="#FFF44F"/>
<stop offset="0.294852" stop-color="#FF980E"/>
<stop offset="0.431521" stop-color="#FF5D36"/>
<stop offset="0.530208" stop-color="#FF3750"/>
<stop offset="0.749319" stop-color="#F5156C"/>
<stop offset="0.76479" stop-color="#F1136E"/>
<stop offset="0.880096" stop-color="#DA057A"/>
<stop offset="0.952784" stop-color="#D2007F"/>
</radialGradient>
<radialGradient id="paint1_radial_1540_4680" cx="0" cy="0" r="1" gradientUnits="userSpaceOnUse" gradientTransform="translate(1.32588 3.77475) scale(10.7452)">
<stop stop-color="#B5007F"/>
<stop offset="1" stop-color="#F5156C" stop-opacity="0"/>
</radialGradient>
<radialGradient id="paint2_radial_1540_4680" cx="0" cy="0" r="1" gradientUnits="userSpaceOnUse" gradientTransform="translate(15.8583 1.99059) scale(21.3199 21.3199)">
<stop stop-color="#FFDD00" stop-opacity="0.6"/>
<stop offset="0.0836672" stop-color="#FFD801" stop-opacity="0.524402"/>
<stop offset="0.182244" stop-color="#FECA05" stop-opacity="0.435332"/>
<stop offset="0.288366" stop-color="#FEB20C" stop-opacity="0.339445"/>
<stop offset="0.399791" stop-color="#FD9115" stop-opacity="0.238766"/>
<stop offset="0.515404" stop-color="#FB6621" stop-opacity="0.134303"/>
<stop offset="0.632872" stop-color="#F9332F" stop-opacity="0.028164"/>
<stop offset="0.664042" stop-color="#F92433" stop-opacity="0"/>
</radialGradient>
<radialGradient id="paint3_radial_1540_4680" cx="0" cy="0" r="1" gradientUnits="userSpaceOnUse" gradientTransform="translate(8.45697 8.88085) scale(27.5043 27.5043)">
<stop offset="0.152849" stop-color="#960E18"/>
<stop offset="0.20613" stop-color="#CC2335" stop-opacity="0.554139"/>
<stop offset="0.249478" stop-color="#F13148" stop-opacity="0.191404"/>
<stop offset="0.272351" stop-color="#FF3750" stop-opacity="0"/>
</radialGradient>
<radialGradient id="paint4_radial_1540_4680" cx="0" cy="0" r="1" gradientUnits="userSpaceOnUse" gradientTransform="translate(6.37564 8.53501) scale(27.5043 27.5043)">
<stop offset="0.112906" stop-color="#960E18"/>
<stop offset="0.189346" stop-color="#CC2335" stop-opacity="0.554139"/>
<stop offset="0.251535" stop-color="#F13148" stop-opacity="0.191404"/>
<stop offset="0.28435" stop-color="#FF3750" stop-opacity="0"/>
</radialGradient>
<linearGradient id="paint5_linear_1540_4680" x1="9.16615" y1="1.55133" x2="13.8722" y2="9.70245" gradientUnits="userSpaceOnUse">
<stop stop-color="#FFBC04"/>
<stop offset="0.259693" stop-color="#FFA202" stop-opacity="0.488604"/>
<stop offset="0.507812" stop-color="#FF8E00" stop-opacity="0"/>
</linearGradient>
<radialGradient id="paint6_radial_1540_4680" cx="0" cy="0" r="1" gradientUnits="userSpaceOnUse" gradientTransform="translate(13.9253 2.41028) scale(17.0415 17.0415)">
<stop stop-color="#FF980E"/>
<stop offset="0.295012" stop-color="#FF7139"/>
<stop offset="0.484646" stop-color="#FF5B51"/>
<stop offset="0.626002" stop-color="#FF4F5E"/>
<stop offset="0.73652" stop-color="#FF4055"/>
<stop offset="0.842829" stop-color="#FF3750"/>
</radialGradient>
<radialGradient id="paint7_radial_1540_4680" cx="0" cy="0" r="1" gradientUnits="userSpaceOnUse" gradientTransform="translate(13.9253 2.41028) scale(17.0415 17.0415)">
<stop offset="0.0840745" stop-color="#FFDE08"/>
<stop offset="0.208103" stop-color="#FFD609" stop-opacity="0.832008"/>
<stop offset="0.40327" stop-color="#FFBF0B" stop-opacity="0.567662"/>
<stop offset="0.643689" stop-color="#FF9B0F" stop-opacity="0.242024"/>
<stop offset="0.822376" stop-color="#FF7B12" stop-opacity="0"/>
</radialGradient>
<radialGradient id="paint8_radial_1540_4680" cx="0" cy="0" r="1" gradientUnits="userSpaceOnUse" gradientTransform="translate(9.98813 7.71179) rotate(75.6865) scale(8.35795 8.72233)">
<stop offset="0.363381" stop-color="#FF3750"/>
<stop offset="0.411136" stop-color="#FF444B" stop-opacity="0.789478"/>
<stop offset="0.590223" stop-color="#FF7139" stop-opacity="0"/>
</radialGradient>
<radialGradient id="paint9_radial_1540_4680" cx="0" cy="0" r="1" gradientUnits="userSpaceOnUse" gradientTransform="translate(8.54748 8.4196) rotate(75.6865) scale(8.35795 8.36529)">
<stop offset="0.215889" stop-color="#FF3750" stop-opacity="0.8"/>
<stop offset="0.270209" stop-color="#FF444B" stop-opacity="0.631583"/>
<stop offset="0.473917" stop-color="#FF7139" stop-opacity="0"/>
</radialGradient>
<radialGradient id="paint10_radial_1540_4680" cx="0" cy="0" r="1" gradientUnits="userSpaceOnUse" gradientTransform="translate(17.3263 0.485236) scale(28.8033 28.8033)">
<stop offset="0.0535657" stop-color="#FFF44F"/>
<stop offset="0.457272" stop-color="#FF980E"/>
<stop offset="0.52105" stop-color="#FF8424"/>
<stop offset="0.587052" stop-color="#FF7634"/>
<stop offset="0.639343" stop-color="#FF7139"/>
</radialGradient>
<linearGradient id="paint11_linear_1540_4680" x1="11.8042" y1="1.4081" x2="3.6385" y2="15.5514" gradientUnits="userSpaceOnUse">
<stop stop-color="#FFF44F" stop-opacity="0.8"/>
<stop offset="0.75" stop-color="#FFF44F" stop-opacity="0"/>
</linearGradient>
<linearGradient id="paint12_linear_1540_4680" x1="9.20442" y1="10.0392" x2="9.20442" y2="0.101219" gradientUnits="userSpaceOnUse">
<stop stop-color="#3A8EE6"/>
<stop offset="0.235934" stop-color="#5C79F0"/>
<stop offset="0.629327" stop-color="#9059FF"/>
<stop offset="1" stop-color="#C139E6"/>
</linearGradient>
<linearGradient id="paint13_linear_1540_4680" x1="5.54728" y1="0.0556577" x2="13.6112" y2="8.11959" gradientUnits="userSpaceOnUse">
<stop offset="0.805429" stop-color="#9059FF" stop-opacity="0"/>
<stop offset="1" stop-color="#6E008B" stop-opacity="0.5"/>
</linearGradient>
</defs>
</svg>
