<svg width="16" height="16" viewBox="0 0 16 16" fill="none" xmlns="http://www.w3.org/2000/svg">
<g clip-path="url(#clip0_2680_704)">
<path fill-rule="evenodd" clip-rule="evenodd" d="M7.50242 1C7.91663 1 8.25242 1.33579 8.25242 1.75L8.25242 8.07537V14.4007C8.25242 14.8149 7.91663 15.1507 7.50242 15.1507C7.08821 15.1507 6.75242 14.8149 6.75242 14.4007V8.07537V1.75C6.75242 1.33579 7.08821 1 7.50242 1ZM0.754313 1.60531C0.3401 1.60531 0.00431313 1.9411 0.00431313 2.35531C0.00431313 2.76953 0.3401 3.10531 0.754313 3.10531H4.8779C5.29212 3.10531 5.6279 2.76953 5.6279 2.35531C5.6279 1.9411 5.29212 1.60531 4.8779 1.60531H0.754313ZM0.754313 9.28629C0.3401 9.28629 0.00431313 9.62208 0.00431313 10.0363C0.00431313 10.4505 0.3401 10.7863 0.754313 10.7863H3.94064C4.35485 10.7863 4.69064 10.4505 4.69064 10.0363C4.69064 9.62208 4.35485 9.28629 3.94064 9.28629H0.754313ZM0.00431313 13.6508C0.00431313 13.2366 0.3401 12.9008 0.754313 12.9008H4.8779C5.29212 12.9008 5.6279 13.2366 5.6279 13.6508C5.6279 14.065 5.29212 14.4008 4.8779 14.4008H0.754313C0.3401 14.4008 0.00431313 14.065 0.00431313 13.6508ZM0.745701 5.66785C0.331494 5.67006 -0.00236252 6.00763 1.25945e-05 6.42183C0.00238771 6.83604 0.340095 7.17003 0.754303 7.16782L3.00334 7.15584C3.41755 7.15363 3.7514 6.81606 3.74903 6.40185C3.74665 5.98765 3.40895 5.65365 2.99474 5.65586L0.745701 5.66785ZM10.3477 9.01124L12.7982 11.3739L12.7983 11.3739L12.7983 11.3739C13.2221 11.7825 13.434 11.9868 13.596 12.0585C14.1248 12.2923 14.741 12.0304 14.9397 11.4875C15.0005 11.3211 15.0005 11.0267 15.0005 10.438V5.71274C15.0005 5.124 15.0005 4.82963 14.9397 4.66325C14.741 4.12029 14.1248 3.85839 13.596 4.09226C13.434 4.16392 13.2221 4.36823 12.7982 4.77686L10.3477 7.13948L10.3476 7.1395C10.1402 7.33952 10.0364 7.43953 9.97183 7.542C9.76635 7.86789 9.76635 8.28284 9.97183 8.60872C10.0364 8.71119 10.1402 8.81121 10.3477 9.01124L10.3477 9.01124Z" fill="#4E4E4E"/>
</g>
<defs>
<clipPath id="clip0_2680_704">
<rect width="16" height="16" fill="white"/>
</clipPath>
</defs>
</svg>
