<svg width="16" height="16" viewBox="0 0 16 16" fill="none" xmlns="http://www.w3.org/2000/svg">
<path d="M8.00002 10.3334C7.38118 10.3334 6.78768 10.0875 6.3501 9.64996C5.91251 9.21237 5.66668 8.61888 5.66668 8.00004C5.66668 7.3812 5.91251 6.78771 6.3501 6.35012C6.78768 5.91254 7.38118 5.66671 8.00002 5.66671C8.61885 5.66671 9.21235 5.91254 9.64993 6.35012C10.0875 6.78771 10.3333 7.3812 10.3333 8.00004C10.3333 8.61888 10.0875 9.21237 9.64993 9.64996C9.21235 10.0875 8.61885 10.3334 8.00002 10.3334ZM12.9533 8.64671C12.98 8.43337 13 8.22004 13 8.00004C13 7.78004 12.98 7.56004 12.9533 7.33337L14.36 6.24671C14.4867 6.14671 14.52 5.96671 14.44 5.82004L13.1067 3.51337C13.0267 3.36671 12.8467 3.30671 12.7 3.36671L11.04 4.03337C10.6933 3.77337 10.3333 3.54671 9.91335 3.38004L9.66668 1.61337C9.64002 1.45337 9.50002 1.33337 9.33335 1.33337H6.66668C6.50002 1.33337 6.36001 1.45337 6.33335 1.61337L6.08668 3.38004C5.66668 3.54671 5.30668 3.77337 4.96002 4.03337L3.30001 3.36671C3.15335 3.30671 2.97335 3.36671 2.89335 3.51337L1.56001 5.82004C1.47335 5.96671 1.51335 6.14671 1.64002 6.24671L3.04668 7.33337C3.02002 7.56004 3.00002 7.78004 3.00002 8.00004C3.00002 8.22004 3.02002 8.43337 3.04668 8.64671L1.64002 9.75337C1.51335 9.85337 1.47335 10.0334 1.56001 10.18L2.89335 12.4867C2.97335 12.6334 3.15335 12.6867 3.30001 12.6334L4.96002 11.96C5.30668 12.2267 5.66668 12.4534 6.08668 12.62L6.33335 14.3867C6.36001 14.5467 6.50002 14.6667 6.66668 14.6667H9.33335C9.50002 14.6667 9.64002 14.5467 9.66668 14.3867L9.91335 12.62C10.3333 12.4467 10.6933 12.2267 11.04 11.96L12.7 12.6334C12.8467 12.6867 13.0267 12.6334 13.1067 12.4867L14.44 10.18C14.52 10.0334 14.4867 9.85337 14.36 9.75337L12.9533 8.64671Z" fill="#4E4E4E"/>
</svg>
