<svg width="16" height="16" viewBox="0 0 16 16" fill="none" xmlns="http://www.w3.org/2000/svg">
<path d="M0 7.27273H2.18182V8.72727H0V7.27273ZM13.1636 1.81818L11.6364 3.34545L12.6545 4.36364L14.1818 2.83636L13.1636 1.81818ZM7.27273 0H8.72727V2.18182H7.27273V0ZM2.83636 1.81818L1.81818 2.83636L3.34545 4.36364L4.36364 3.34545L2.83636 1.81818ZM6.54545 15.2727C6.54545 15.7091 6.83636 16 7.27273 16H8.72727C9.16364 16 9.45455 15.7091 9.45455 15.2727V14.5455H6.54545V15.2727ZM8 3.63636C5.6 3.63636 3.63636 5.6 3.63636 8C3.63636 9.6 4.50909 11.0545 5.81818 11.7818V13.0909C5.81818 13.5273 6.10909 13.8182 6.54545 13.8182H9.45455C9.89091 13.8182 10.1818 13.5273 10.1818 13.0909V11.7818C11.4909 11.0545 12.3636 9.6 12.3636 8C12.3636 5.6 10.4 3.63636 8 3.63636ZM8.72727 10.8364V11.6364H7.27273V10.8364C6.03636 10.5455 5.09091 9.38182 5.09091 8C5.09091 6.4 6.4 5.09091 8 5.09091C9.6 5.09091 10.9091 6.4 10.9091 8C10.9091 9.38182 9.96364 10.4727 8.72727 10.8364ZM13.8182 7.27273H16V8.72727H13.8182V7.27273Z" fill="#4E4E4E"/>
</svg>
