<svg width="16" height="16" viewBox="0 0 16 16" fill="none" xmlns="http://www.w3.org/2000/svg">
<path d="M8 12C8.39782 12 8.77936 11.842 9.06066 11.5607C9.34196 11.2794 9.5 10.8978 9.5 10.5C9.5 9.6675 8.825 9 8 9C7.60218 9 7.22064 9.15804 6.93934 9.43934C6.65804 9.72065 6.5 10.1022 6.5 10.5C6.5 10.8978 6.65804 11.2794 6.93934 11.5607C7.22064 11.842 7.60218 12 8 12ZM12.5 5.25C12.8978 5.25 13.2794 5.40804 13.5607 5.68934C13.842 5.97064 14 6.35218 14 6.75V14.25C14 14.6478 13.842 15.0294 13.5607 15.3107C13.2794 15.592 12.8978 15.75 12.5 15.75H3.5C3.10218 15.75 2.72064 15.592 2.43934 15.3107C2.15804 15.0294 2 14.6478 2 14.25V6.75C2 5.9175 2.675 5.25 3.5 5.25H4.25V3.75C4.25 2.75544 4.64509 1.80161 5.34835 1.09835C6.05161 0.395088 7.00544 0 8 0C8.49246 0 8.98009 0.0969966 9.43506 0.285452C9.89003 0.473907 10.3034 0.75013 10.6517 1.09835C10.9999 1.44657 11.2761 1.85997 11.4645 2.31494C11.653 2.76991 11.75 3.25754 11.75 3.75V5.25H12.5ZM8 1.5C7.40326 1.5 6.83097 1.73705 6.40901 2.15901C5.98705 2.58097 5.75 3.15326 5.75 3.75V5.25H10.25V3.75C10.25 3.15326 10.0129 2.58097 9.59099 2.15901C9.16903 1.73705 8.59674 1.5 8 1.5Z" fill="#4E4E4E"/>
</svg>
