<?xml version="1.0" encoding="UTF-8" standalone="no"?>
<svg
   viewBox="0 0 20 22"
   fill="none"
   version="1.1"
   id="svg1"
   sodipodi:docname="message-question.svg"
   width="20"
   height="22"
   inkscape:version="1.3.2 (091e20e, 2023-11-25)"
   xmlns:inkscape="http://www.inkscape.org/namespaces/inkscape"
   xmlns:sodipodi="http://sodipodi.sourceforge.net/DTD/sodipodi-0.dtd"
   xmlns="http://www.w3.org/2000/svg"
   xmlns:svg="http://www.w3.org/2000/svg">
  <defs
     id="defs1" />
  <sodipodi:namedview
     id="namedview1"
     pagecolor="#ffffff"
     bordercolor="#000000"
     borderopacity="0.25"
     inkscape:showpageshadow="2"
     inkscape:pageopacity="0.0"
     inkscape:pagecheckerboard="0"
     inkscape:deskcolor="#d1d1d1"
     inkscape:zoom="51.590909"
     inkscape:cx="10.001762"
     inkscape:cy="11"
     inkscape:window-width="2048"
     inkscape:window-height="1306"
     inkscape:window-x="129"
     inkscape:window-y="51"
     inkscape:window-maximized="0"
     inkscape:current-layer="svg1" />
  <path
     d="M 18,0 H 2 C 0.9,0 0,0.9 0,2 v 16.7929 c 0,0.4454 0.53857,0.6685 0.85355,0.3535 l 3,-3 C 3.94732,16.0527 4.0745,16 4.20711,16 H 18 c 1.1,0 2,-0.9 2,-2 V 2 C 20,0.9 19.1,0 18,0 Z m -7,11.5 c 0,0.2761 -0.2239,0.5 -0.5,0.5 h -1 C 9.2239,12 9,11.7761 9,11.5 v -1 C 9,10.2239 9.2239,10 9.5,10 h 1 c 0.2761,0 0.5,0.2239 0.5,0.5 z M 12.8,7 C 12.5,7.4 12.1,7.6 11.7,7.8 11.4379,7.9747 11.3285,8.0731 11.2384,8.2285 11.2114,8.275 11.1794,8.3184 11.1457,8.3603 11.1072,8.4081 11.0788,8.4565 11.058,8.5068 10.9523,8.7619 10.7761,9 10.5,9 h -1 C 9.2239,9 8.9889,8.7733 9.0439,8.5027 9.0876,8.2878 9.164,8.1131 9.273,7.94152 9.2906,7.91372 9.3115,7.88821 9.3354,7.86553 9.538,7.6731 9.9026,7.40205 10.353,7.12837 10.3842,7.10943 10.4176,7.09457 10.4517,7.08143 10.7231,6.97658 10.9059,6.78829 11,6.6 11.1,6.4 11.2,6.1 11.2,5.9 11.2,5.6 11.1,5.4 10.9,5.2 10.7,5 10.4,4.9 10.1,4.9 9.8,4.9 9.6,5 9.4,5.1 9.335,5.1325 9.2806,5.17556 9.2367,5.22919 9.0618,5.44291 8.8761,5.7 8.6,5.7 H 7.67651 C 7.37223,5.7 7.13449,5.42796 7.23053,5.13924 7.38311,4.68055 7.6396,4.28832 8,4 8.5,3.6 9.2,3.5 10.1,3.5 c 0.9,0 1.7,0.2 2.2,0.6 0.4853,0.38822 0.7822,0.96484 0.7992,1.63844 0.0011,0.04086 0.0063,0.08155 0.0143,0.12164 C 13.1895,6.24005 13.085,6.62003 12.8,7 Z"
     fill="#696969"
     id="path1" />
</svg>
