<svg width="16" height="16" viewBox="0 0 16 16" fill="none" xmlns="http://www.w3.org/2000/svg">
<path d="M1.42201e-08 7.99991C-7.34198e-05 9.20772 0.284269 10.3986 0.830007 11.4761C1.37575 12.5536 2.16754 13.4874 3.14129 14.202C4.11504 14.9166 5.24337 15.3918 6.43494 15.5892C7.62651 15.7866 8.84782 15.7007 10 15.3384C8.43814 14.8475 7.07362 13.8712 6.10493 12.5514C5.13624 11.2315 4.6139 9.63707 4.6139 7.99991C4.6139 6.36274 5.13624 4.76827 6.10493 3.44845C7.07362 2.12862 8.43814 1.15228 10 0.661444C8.84782 0.2991 7.62651 0.213162 6.43494 0.410589C5.24337 0.608016 4.11504 1.08326 3.14129 1.79784C2.16754 2.51242 1.37575 3.44626 0.830007 4.52375C0.284269 5.60123 -7.34198e-05 6.79209 1.42201e-08 7.99991Z" fill="#4E4E4E"/>
</svg>
