<svg width="16" height="16" viewBox="0 0 16 16" fill="none" xmlns="http://www.w3.org/2000/svg">
<path d="M8.89123 2.7509C8.91027 2.66132 8.99798 2.60385 9.08772 2.62216C9.17848 2.64068 9.23676 2.72962 9.2175 2.82024L7.00137 13.2491C6.98233 13.3387 6.89462 13.3962 6.80488 13.3778C6.71412 13.3593 6.65584 13.2704 6.6751 13.1798L8.89123 2.7509ZM2.06112 8.35328C1.8656 8.15806 1.86548 7.84127 2.06085 7.6459L4.49448 5.21226C4.59971 5.10703 4.77963 5.18155 4.77963 5.33037C4.77963 5.37467 4.76204 5.41716 4.73071 5.44848L3.24084 6.93835C2.65448 7.52472 2.65514 8.47561 3.24232 9.06115L4.73042 10.5451C4.76193 10.5765 4.77963 10.6192 4.77963 10.6637C4.77963 10.8128 4.59937 10.8876 4.49383 10.7822L2.06112 8.35328Z" stroke="#4E4E4E"/>
<path d="M11.5 5.20711L14.2929 8L11.5 10.7929V5.20711L11.8536 4.85355L11.5 5.20711Z" fill="#4E4E4E" stroke="#4E4E4E"/>
</svg>
