<svg width="16" height="16" viewBox="0 0 16 16" fill="none" xmlns="http://www.w3.org/2000/svg">
<path d="M2.24165 11.5167C2.83617 11.5167 3.40634 11.7529 3.82673 12.1733C4.24712 12.5937 4.48329 13.1638 4.48329 13.7584C4.48329 14.9717 3.47558 16 2.24165 16C1.02828 16 0 14.9717 0 13.7584C0 13.1638 0.236173 12.5937 0.656563 12.1733C1.07695 11.7529 1.64712 11.5167 2.24165 11.5167ZM0 0C4.24346 0 8.31313 1.68571 11.3137 4.68629C14.3143 7.68687 16 11.7565 16 16H13.09C13.09 14.281 12.7514 12.5788 12.0936 10.9907C11.4357 9.40254 10.4715 7.95951 9.25601 6.74399C8.04049 5.52847 6.59747 4.56427 5.00932 3.90644C3.42117 3.24861 1.719 2.91003 0 2.91003V0ZM0 5.82005C2.69989 5.82005 5.2892 6.89258 7.19831 8.80169C9.10742 10.7108 10.1799 13.3001 10.1799 16H7.26992C7.26992 14.0719 6.50399 12.2228 5.14061 10.8594C3.77724 9.49601 1.9281 8.73008 0 8.73008V5.82005Z" fill="#4E4E4E"/>
</svg>
