<svg width="16" height="16" viewBox="0 0 16 16" fill="none" xmlns="http://www.w3.org/2000/svg">
<g clip-path="url(#clip0_2033_1668)">
<path fill-rule="evenodd" clip-rule="evenodd" d="M16 3.5C16 5.433 14.433 7 12.5 7C11.3722 7 10.369 6.4666 9.72894 5.63832L6.92145 7.25922C6.97291 7.498 7 7.74583 7 8C7 8.51208 6.89003 8.99847 6.69241 9.43685L9.35051 10.9715C9.91797 9.80441 11.115 9 12.5 9C14.433 9 16 10.567 16 12.5C16 14.433 14.433 16 12.5 16C10.5674 16 9.00064 14.4336 9 12.5012L5.78934 10.6475C5.17563 11.1787 4.37534 11.5 3.5 11.5C1.567 11.5 0 9.933 0 8C0 6.067 1.567 4.5 3.5 4.5C4.64063 4.5 5.65382 5.04563 6.2928 5.89012L9.08658 4.27713C9.02992 4.02719 9 3.76709 9 3.5C9 1.567 10.567 0 12.5 0C14.433 0 16 1.567 16 3.5ZM12.5 5.5C13.6046 5.5 14.5 4.60457 14.5 3.5C14.5 2.39543 13.6046 1.5 12.5 1.5C11.3954 1.5 10.5 2.39543 10.5 3.5C10.5 4.60457 11.3954 5.5 12.5 5.5ZM12.5 14.5C13.6046 14.5 14.5 13.6046 14.5 12.5C14.5 11.3954 13.6046 10.5 12.5 10.5C11.3954 10.5 10.5 11.3954 10.5 12.5C10.5 13.6046 11.3954 14.5 12.5 14.5ZM5.5 8C5.5 9.10457 4.60457 10 3.5 10C2.39543 10 1.5 9.10457 1.5 8C1.5 6.89543 2.39543 6 3.5 6C4.60457 6 5.5 6.89543 5.5 8Z" fill="#4E4E4E"/>
</g>
<defs>
<clipPath id="clip0_2033_1668">
<rect width="16" height="16" fill="white"/>
</clipPath>
</defs>
</svg>
