<svg width="16" height="16" viewBox="0 0 16 16" fill="none" xmlns="http://www.w3.org/2000/svg">
<path d="M1.85455 13.1564L2.88 14.1818L4.18909 12.88L3.15636 11.8473M8 3.63636C5.59273 3.63636 3.63636 5.59273 3.63636 8C3.63636 10.4073 5.59273 12.3636 8 12.3636C10.4073 12.3636 12.3636 10.4073 12.3636 8C12.3636 5.58545 10.4073 3.63636 8 3.63636ZM13.8182 8.72727H16V7.27273H13.8182M11.8109 12.88L13.12 14.1818L14.1455 13.1564L12.8436 11.8473M14.1455 2.90909L13.12 1.89091L11.8109 3.19273L12.8436 4.22545M8.72727 0H7.27273V2.18182H8.72727M4.18909 3.19273L2.88 1.89091L1.85455 2.90909L3.15636 4.22545L4.18909 3.19273ZM0 8.72727H2.18182V7.27273H0M8.72727 13.8182H7.27273V16H8.72727" fill="#4E4E4E"/>
</svg>
