<svg width="16" height="16" viewBox="0 0 16 16" fill="none" xmlns="http://www.w3.org/2000/svg">
<path d="M2.90909 6.54548V15.2727H0V6.54548H2.90909ZM5.81818 15.2727C5.43241 15.2727 5.06244 15.1195 4.78966 14.8467C4.51688 14.5739 4.36364 14.204 4.36364 13.8182V6.54548C4.36364 6.14548 4.52364 5.78184 4.79273 5.52002L9.57818 0.727295L10.3491 1.4982C10.5455 1.69457 10.6691 1.96366 10.6691 2.26184L10.6473 2.49457L9.95636 5.8182H14.5455C15.3527 5.8182 16 6.47275 16 7.27275V8.72729C16 8.91639 15.9636 9.09093 15.8982 9.2582L13.7018 14.3855C13.4836 14.9091 12.9673 15.2727 12.3636 15.2727H5.81818ZM5.81818 13.8182H12.3855L14.5455 8.72729V7.27275H8.15273L8.97455 3.40366L5.81818 6.5673V13.8182Z" fill="#4E4E4E"/>
</svg>
