<svg width="16" height="16" viewBox="0 0 16 16" fill="none" xmlns="http://www.w3.org/2000/svg">
<path d="M13.0909 9.95457V1.22729H16V9.95457H13.0909ZM10.1818 1.22729C10.5676 1.22729 10.9376 1.38054 11.2103 1.65332C11.4831 1.9261 11.6364 2.29607 11.6364 2.68184V9.95457C11.6364 10.3546 11.4764 10.7182 11.2073 10.98L6.42182 15.7727L5.65091 15.0018C5.45455 14.8055 5.33091 14.5364 5.33091 14.2309L5.35273 14.0055L6.04364 10.6818H1.45455C0.647273 10.6818 0 10.0273 0 9.22729V7.77275C0 7.58366 0.0363636 7.40911 0.101818 7.24184L2.29818 2.11457C2.51636 1.59093 3.03273 1.22729 3.63636 1.22729H10.1818ZM10.1818 2.68184H3.61455L1.45455 7.77275V9.22729H7.84L7.01818 13.0964L10.1818 9.93275V2.68184Z" fill="#4E4E4E"/>
</svg>
