<svg width="16" height="16" viewBox="0 0 16 16" fill="none" xmlns="http://www.w3.org/2000/svg">
<path d="M12.5556 3.55556H3.88889C3.3366 3.55556 2.88889 4.00327 2.88889 4.55555V15C2.88889 15.5523 3.33661 16 3.88889 16H12.5556C13.1078 16 13.5556 15.5523 13.5556 15V4.55556C13.5556 4.00327 13.1078 3.55556 12.5556 3.55556Z" fill="#4E4E4E"/>
<path d="M4.6969 0.888889H2.88889C2.39797 0.888889 2 1.28686 2 1.77778C2 2.2687 2.39797 2.66667 2.88889 2.66667H13.5556C14.0465 2.66667 14.4444 2.2687 14.4444 1.77778C14.4444 1.28686 14.0465 0.888889 13.5556 0.888889H11.7475C11.4823 0.888889 11.228 0.783532 11.0404 0.595996L10.7373 0.292893C10.5498 0.105357 10.2954 0 10.0302 0H6.41421C6.149 0 5.89464 0.105357 5.70711 0.292893L5.404 0.595996C5.21647 0.783532 4.96211 0.888889 4.6969 0.888889Z" fill="#4E4E4E"/>
</svg>
